<svg width="333" height="289" viewBox="0 0 333 289" fill="none" xmlns="http://www.w3.org/2000/svg">
<g filter="url(#filter0_f)">
<rect x="20" y="20" width="293" height="249" fill="#C4C4C4"/>
</g>
<rect x="20" y="13" width="293" height="236" fill="white"/>
<path d="M244.96 186H238.258V185.355L241.107 182.382C241.908 181.552 242.47 180.917 242.792 180.478C243.114 180.038 243.351 179.618 243.502 179.218C243.654 178.817 243.729 178.397 243.729 177.958C243.729 177.318 243.52 176.798 243.1 176.398C242.68 175.998 242.135 175.797 241.466 175.797C240.573 175.797 239.718 176.122 238.903 176.771L238.507 176.266C239.401 175.514 240.392 175.138 241.481 175.138C242.414 175.138 243.146 175.387 243.678 175.885C244.215 176.383 244.484 177.069 244.484 177.943C244.484 178.651 244.303 179.337 243.942 180.001C243.585 180.661 242.931 181.476 241.979 182.448L239.232 185.268V185.297H244.96V186ZM250.995 186H250.277V178.2C250.277 177.492 250.307 176.757 250.365 175.995C250.292 176.068 250.216 176.139 250.138 176.208C250.06 176.276 249.306 176.869 247.875 177.987L247.458 177.467L250.365 175.292H250.995V186Z" fill="#414141"/>
<path d="M200.96 187H194.258V186.355L197.107 183.382C197.908 182.552 198.47 181.917 198.792 181.478C199.114 181.038 199.351 180.618 199.502 180.218C199.654 179.817 199.729 179.397 199.729 178.958C199.729 178.318 199.52 177.798 199.1 177.398C198.68 176.998 198.135 176.797 197.466 176.797C196.573 176.797 195.718 177.122 194.903 177.771L194.507 177.266C195.401 176.514 196.392 176.138 197.481 176.138C198.414 176.138 199.146 176.387 199.678 176.885C200.215 177.383 200.484 178.069 200.484 178.943C200.484 179.651 200.303 180.337 199.942 181.001C199.585 181.661 198.931 182.476 197.979 183.448L195.232 186.268V186.297H200.96V187ZM209.727 181.617C209.727 183.497 209.439 184.888 208.863 185.792C208.292 186.695 207.425 187.146 206.263 187.146C205.145 187.146 204.295 186.683 203.714 185.755C203.133 184.822 202.842 183.443 202.842 181.617C202.842 179.751 203.123 178.37 203.685 177.471C204.251 176.573 205.11 176.124 206.263 176.124C207.391 176.124 208.25 176.59 208.841 177.522C209.432 178.45 209.727 179.815 209.727 181.617ZM203.633 181.617C203.633 183.277 203.851 184.505 204.285 185.301C204.72 186.092 205.379 186.487 206.263 186.487C207.186 186.487 207.857 186.077 208.277 185.257C208.702 184.437 208.914 183.223 208.914 181.617C208.914 180.035 208.702 178.833 208.277 178.013C207.857 177.193 207.186 176.783 206.263 176.783C205.34 176.783 204.671 177.193 204.256 178.013C203.841 178.833 203.633 180.035 203.633 181.617Z" fill="#414141"/>
<path d="M123.426 186H122.708V178.2C122.708 177.492 122.737 176.757 122.796 175.995C122.723 176.068 122.647 176.139 122.569 176.208C122.491 176.276 121.736 176.869 120.306 177.987L119.888 177.467L122.796 175.292H123.426V186ZM131.263 175.109C132.171 175.109 132.901 175.341 133.453 175.805C134.009 176.269 134.288 176.896 134.288 177.687C134.288 178.234 134.114 178.717 133.768 179.137C133.426 179.557 132.869 179.945 132.098 180.302C133.035 180.688 133.694 181.11 134.075 181.569C134.456 182.028 134.646 182.584 134.646 183.239C134.646 184.123 134.336 184.828 133.716 185.355C133.101 185.883 132.273 186.146 131.233 186.146C130.154 186.146 129.327 185.9 128.75 185.407C128.174 184.914 127.886 184.196 127.886 183.253C127.886 182.614 128.089 182.052 128.494 181.569C128.899 181.085 129.527 180.673 130.376 180.331C129.59 179.96 129.036 179.569 128.714 179.159C128.392 178.744 128.23 178.249 128.23 177.672C128.23 177.16 128.36 176.71 128.619 176.325C128.877 175.934 129.239 175.634 129.703 175.424C130.171 175.214 130.691 175.109 131.263 175.109ZM128.633 183.363C128.633 184.037 128.86 184.56 129.314 184.931C129.773 185.302 130.413 185.487 131.233 185.487C132.034 185.487 132.679 185.292 133.167 184.901C133.655 184.506 133.899 183.971 133.899 183.297C133.899 182.692 133.707 182.201 133.321 181.825C132.94 181.444 132.203 181.046 131.109 180.631C130.21 180.978 129.573 181.361 129.197 181.781C128.821 182.201 128.633 182.729 128.633 183.363ZM131.248 175.768C130.56 175.768 130.005 175.939 129.585 176.281C129.17 176.618 128.963 177.082 128.963 177.672C128.963 178.014 129.039 178.317 129.19 178.581C129.346 178.839 129.568 179.076 129.856 179.291C130.149 179.501 130.638 179.748 131.321 180.031C132.117 179.723 132.688 179.384 133.035 179.013C133.382 178.642 133.555 178.195 133.555 177.672C133.555 177.086 133.348 176.623 132.933 176.281C132.522 175.939 131.961 175.768 131.248 175.768Z" fill="#414141"/>
<path d="M53.3359 33.0884C53.3359 35.3644 52.7391 37.0869 51.5454 38.2559C50.3517 39.4186 48.5983 40 46.2852 40H43.0381V26.4365H46.7026C48.8674 26.4365 50.5125 27.0024 51.6382 28.1343C52.77 29.2661 53.3359 30.9175 53.3359 33.0884ZM52.3062 33.1255C52.3062 31.1834 51.8114 29.7238 50.8218 28.7466C49.8384 27.7632 48.3911 27.2715 46.48 27.2715H43.9844V39.165H46.2295C50.2806 39.165 52.3062 37.1519 52.3062 33.1255ZM57.1396 40H56.2212V29.9155H57.1396V40ZM56.0913 27.1138C56.0913 26.52 56.2861 26.2231 56.6758 26.2231C56.8675 26.2231 57.016 26.3005 57.1211 26.4551C57.2324 26.6097 57.2881 26.8293 57.2881 27.1138C57.2881 27.3921 57.2324 27.6117 57.1211 27.7725C57.016 27.9333 56.8675 28.0137 56.6758 28.0137C56.2861 28.0137 56.0913 27.7137 56.0913 27.1138ZM64.5522 40.1855C63.1112 40.1855 61.9824 39.731 61.166 38.8218C60.3496 37.9126 59.9414 36.6447 59.9414 35.0181C59.9414 33.3481 60.3651 32.0493 61.2124 31.1216C62.0597 30.1877 63.2194 29.7207 64.6914 29.7207C65.5635 29.7207 66.3984 29.8722 67.1963 30.1753L66.9458 30.9917C66.0737 30.701 65.3161 30.5557 64.6729 30.5557C63.4359 30.5557 62.4989 30.9391 61.8618 31.7061C61.2248 32.4668 60.9062 33.5646 60.9062 34.9995C60.9062 36.3602 61.2248 37.4271 61.8618 38.2002C62.4989 38.9671 63.3895 39.3506 64.5337 39.3506C65.4491 39.3506 66.2995 39.1867 67.085 38.8589V39.7124C66.4417 40.0278 65.5975 40.1855 64.5522 40.1855ZM70.4805 40H69.562V29.9155H70.4805V40ZM69.4321 27.1138C69.4321 26.52 69.627 26.2231 70.0166 26.2231C70.2083 26.2231 70.3568 26.3005 70.4619 26.4551C70.5732 26.6097 70.6289 26.8293 70.6289 27.1138C70.6289 27.3921 70.5732 27.6117 70.4619 27.7725C70.3568 27.9333 70.2083 28.0137 70.0166 28.0137C69.627 28.0137 69.4321 27.7137 69.4321 27.1138ZM77.9395 40.1855C76.4736 40.1855 75.3294 39.734 74.5068 38.8311C73.6904 37.9281 73.2822 36.6632 73.2822 35.0366C73.2822 33.4285 73.6781 32.1421 74.4697 31.1772C75.2614 30.2062 76.3283 29.7207 77.6704 29.7207C78.8579 29.7207 79.7949 30.1351 80.4814 30.9639C81.168 31.7926 81.5112 32.9183 81.5112 34.3408V35.083H74.2471C74.2594 36.4684 74.5811 37.526 75.2119 38.2559C75.849 38.9857 76.7581 39.3506 77.9395 39.3506C78.5146 39.3506 79.0187 39.3104 79.4517 39.23C79.8908 39.1496 80.4443 38.9764 81.1123 38.7104V39.5454C80.5433 39.7928 80.0176 39.9598 79.5352 40.0464C79.0527 40.1392 78.5208 40.1855 77.9395 40.1855ZM77.6704 30.5371C76.6994 30.5371 75.9201 30.8587 75.3325 31.502C74.745 32.139 74.4017 33.0605 74.3027 34.2666H80.5371C80.5371 33.0977 80.2835 32.1854 79.7764 31.5298C79.2692 30.868 78.5672 30.5371 77.6704 30.5371ZM96.8931 40V33.3853C96.8931 32.4019 96.7013 31.6844 96.3179 31.2329C95.9344 30.7814 95.3468 30.5557 94.5552 30.5557C93.5223 30.5557 92.7585 30.8402 92.2637 31.4092C91.7689 31.9782 91.5215 32.8719 91.5215 34.0903V40H90.5845V33.1069C90.5845 31.4061 89.8052 30.5557 88.2466 30.5557C87.189 30.5557 86.4189 30.8649 85.9365 31.4834C85.4541 32.0957 85.2129 33.0791 85.2129 34.4336V40H84.2944V29.9155H85.0552L85.25 31.2979H85.3057C85.584 30.7969 85.9798 30.4103 86.4932 30.1382C87.0065 29.8599 87.5724 29.7207 88.1909 29.7207C89.7804 29.7207 90.8009 30.3175 91.2524 31.5112H91.2896C91.6174 30.936 92.0565 30.4938 92.6069 30.1846C93.1636 29.8753 93.7944 29.7207 94.4995 29.7207C95.6004 29.7207 96.4261 30.0145 96.9766 30.6021C97.527 31.1896 97.8022 32.1235 97.8022 33.4038V40H96.8931ZM105.326 29.7207C106.736 29.7207 107.797 30.166 108.508 31.0566C109.226 31.9411 109.584 33.2368 109.584 34.9438C109.584 36.62 109.207 37.9126 108.453 38.8218C107.704 39.731 106.65 40.1855 105.289 40.1855C104.572 40.1855 103.925 40.0371 103.35 39.7402C102.775 39.4434 102.32 39.0228 101.986 38.4785H101.903L101.643 40H101.068V25.5645H101.986V29.1919C101.986 29.7362 101.974 30.2371 101.949 30.6948L101.921 31.4834H101.986C102.37 30.8773 102.831 30.432 103.369 30.1475C103.913 29.863 104.565 29.7207 105.326 29.7207ZM105.308 30.5557C104.12 30.5557 103.27 30.8958 102.756 31.5762C102.243 32.2565 101.986 33.3791 101.986 34.9438V35.1016C101.986 36.623 102.252 37.7147 102.784 38.3765C103.322 39.0382 104.157 39.3691 105.289 39.3691C106.39 39.3691 107.219 38.9857 107.775 38.2188C108.332 37.4456 108.61 36.3478 108.61 34.9253C108.61 32.0122 107.509 30.5557 105.308 30.5557ZM116.357 29.7207C116.784 29.7207 117.241 29.764 117.73 29.8506L117.554 30.7319C117.133 30.6268 116.697 30.5742 116.246 30.5742C115.386 30.5742 114.681 30.9391 114.13 31.6689C113.58 32.3988 113.305 33.3203 113.305 34.4336V40H112.386V29.9155H113.166L113.258 31.7339H113.323C113.738 30.9917 114.18 30.4722 114.65 30.1753C115.12 29.8722 115.689 29.7207 116.357 29.7207ZM123.862 40.1855C122.396 40.1855 121.252 39.734 120.43 38.8311C119.613 37.9281 119.205 36.6632 119.205 35.0366C119.205 33.4285 119.601 32.1421 120.393 31.1772C121.184 30.2062 122.251 29.7207 123.593 29.7207C124.781 29.7207 125.718 30.1351 126.404 30.9639C127.091 31.7926 127.434 32.9183 127.434 34.3408V35.083H120.17C120.182 36.4684 120.504 37.526 121.135 38.2559C121.772 38.9857 122.681 39.3506 123.862 39.3506C124.438 39.3506 124.942 39.3104 125.375 39.23C125.814 39.1496 126.367 38.9764 127.035 38.7104V39.5454C126.466 39.7928 125.94 39.9598 125.458 40.0464C124.976 40.1392 124.444 40.1855 123.862 40.1855ZM123.593 30.5371C122.622 30.5371 121.843 30.8587 121.255 31.502C120.668 32.139 120.325 33.0605 120.226 34.2666H126.46C126.46 33.0977 126.206 32.1854 125.699 31.5298C125.192 30.868 124.49 30.5371 123.593 30.5371ZM143.001 40H134.513V39.1836L138.122 35.417C139.136 34.3656 139.847 33.5615 140.255 33.0049C140.664 32.4482 140.964 31.9163 141.155 31.4092C141.347 30.902 141.443 30.3701 141.443 29.8135C141.443 29.0033 141.177 28.3446 140.645 27.8374C140.113 27.3302 139.424 27.0767 138.576 27.0767C137.444 27.0767 136.362 27.488 135.329 28.3105L134.828 27.6704C135.96 26.7179 137.215 26.2417 138.595 26.2417C139.776 26.2417 140.704 26.5571 141.378 27.188C142.058 27.8188 142.398 28.6878 142.398 29.7949C142.398 30.6917 142.17 31.5607 141.712 32.4019C141.26 33.2368 140.432 34.2697 139.226 35.5005L135.747 39.0723V39.1094H143.001V40ZM154.106 33.1812C154.106 35.5623 153.742 37.325 153.012 38.4692C152.288 39.6134 151.19 40.1855 149.718 40.1855C148.302 40.1855 147.226 39.598 146.49 38.4229C145.754 37.2415 145.386 35.4943 145.386 33.1812C145.386 30.8185 145.741 29.0682 146.453 27.9302C147.17 26.7922 148.259 26.2231 149.718 26.2231C151.147 26.2231 152.236 26.8138 152.984 27.9951C153.732 29.1702 154.106 30.8989 154.106 33.1812ZM146.388 33.1812C146.388 35.284 146.663 36.8395 147.213 37.8477C147.764 38.8496 148.599 39.3506 149.718 39.3506C150.887 39.3506 151.738 38.8311 152.27 37.792C152.808 36.7529 153.077 35.216 153.077 33.1812C153.077 31.1772 152.808 29.6558 152.27 28.6167C151.738 27.5776 150.887 27.0581 149.718 27.0581C148.549 27.0581 147.702 27.5776 147.176 28.6167C146.651 29.6558 146.388 31.1772 146.388 33.1812ZM161.5 40H160.591V30.1196C160.591 29.2228 160.628 28.292 160.703 27.3271C160.61 27.4199 160.514 27.5096 160.415 27.5962C160.316 27.6828 159.361 28.4342 157.548 29.8506L157.02 29.1919L160.703 26.4365H161.5V40ZM175.639 32.1885C175.639 33.9697 175.404 35.4603 174.934 36.6602C174.47 37.86 173.79 38.7476 172.893 39.3228C172.002 39.8979 170.923 40.1855 169.655 40.1855C169.012 40.1855 168.418 40.1051 167.874 39.9443V39.1465C168.14 39.2331 168.458 39.3011 168.83 39.3506C169.207 39.3939 169.494 39.4155 169.692 39.4155C171.22 39.4155 172.417 38.8651 173.283 37.7642C174.149 36.6571 174.631 35.0459 174.73 32.9307H174.619C174.167 33.5244 173.629 33.9821 173.004 34.3037C172.38 34.6191 171.727 34.7769 171.047 34.7769C169.791 34.7769 168.811 34.4305 168.106 33.7378C167.407 33.0451 167.058 32.0617 167.058 30.7876C167.058 29.4269 167.441 28.326 168.208 27.4849C168.981 26.6437 169.983 26.2231 171.214 26.2231C172.104 26.2231 172.884 26.4582 173.552 26.9282C174.22 27.3921 174.733 28.0755 175.092 28.9785C175.457 29.8815 175.639 30.9515 175.639 32.1885ZM171.214 27.0396C170.237 27.0396 169.457 27.3704 168.876 28.0322C168.295 28.6878 168.004 29.5877 168.004 30.7319C168.004 31.8081 168.273 32.6245 168.811 33.1812C169.349 33.7378 170.119 34.0161 171.121 34.0161C171.746 34.0161 172.327 33.877 172.865 33.5986C173.41 33.3203 173.839 32.9523 174.155 32.4946C174.476 32.0308 174.637 31.5607 174.637 31.0845C174.637 30.3608 174.492 29.6836 174.201 29.0527C173.917 28.4219 173.515 27.9302 172.995 27.5776C172.482 27.2189 171.888 27.0396 171.214 27.0396Z" fill="#414141"/>
<path d="M45.0405 77V63.4365H45.9868V76.1094H52.4531V77H45.0405Z" fill="#414141"/>
<path d="M88.6846 77L83.6284 64.4756H83.5542C83.6037 65.2425 83.6284 66.028 83.6284 66.832V77H82.7192V63.4365H84.1851L88.9907 75.3672H89.0464L93.8521 63.4365H95.2808V77H94.3252V66.7207C94.3252 66.0033 94.3623 65.2611 94.4365 64.4941H94.3623L89.2876 77H88.6846Z" fill="#414141"/>
<path d="M125.185 77L120.128 64.4756H120.054C120.104 65.2425 120.128 66.028 120.128 66.832V77H119.219V63.4365H120.685L125.491 75.3672H125.546L130.352 63.4365H131.781V77H130.825V66.7207C130.825 66.0033 130.862 65.2611 130.937 64.4941H130.862L125.788 77H125.185Z" fill="#414141"/>
<path d="M161.847 80.4233C161.278 80.4233 160.811 80.3398 160.446 80.1729V79.3564C160.928 79.4801 161.389 79.542 161.828 79.542C163.325 79.542 164.073 78.7256 164.073 77.0928V63.4365H165.02V77C165.02 79.2822 163.962 80.4233 161.847 80.4233Z" fill="#414141"/>
<path d="M204.953 65.4365H205.983L200.908 79H200.073L195.017 65.4365H196.028L199.442 74.6675C199.962 76.0591 200.311 77.1043 200.491 77.8032C200.614 77.3394 200.859 76.6188 201.224 75.6416L204.953 65.4365Z" fill="#414141"/>
<path d="M244.73 75.5024C244.73 76.6343 244.313 77.5311 243.478 78.1929C242.649 78.8547 241.545 79.1855 240.166 79.1855C238.508 79.1855 237.237 79.0031 236.353 78.6382V77.6919C237.33 78.1063 238.576 78.3135 240.092 78.3135C241.205 78.3135 242.086 78.0599 242.736 77.5527C243.391 77.0394 243.719 76.3683 243.719 75.5396C243.719 75.0262 243.611 74.6025 243.395 74.2686C243.178 73.9284 242.826 73.6191 242.337 73.3408C241.848 73.0625 241.131 72.7625 240.185 72.4409C238.799 71.9647 237.84 71.4513 237.309 70.9009C236.783 70.3442 236.52 69.6051 236.52 68.6836C236.52 67.6693 236.916 66.8436 237.708 66.2065C238.505 65.5633 239.529 65.2417 240.778 65.2417C242.052 65.2417 243.249 65.4829 244.369 65.9653L244.025 66.7817C242.9 66.3117 241.824 66.0767 240.797 66.0767C239.795 66.0767 238.997 66.3086 238.403 66.7725C237.81 67.2363 237.513 67.8672 237.513 68.665C237.513 69.166 237.602 69.5773 237.782 69.8989C237.967 70.2205 238.267 70.5112 238.682 70.771C239.096 71.0246 239.807 71.3307 240.815 71.6895C241.873 72.0544 242.668 72.41 243.2 72.7563C243.732 73.0965 244.118 73.4862 244.359 73.9253C244.607 74.3582 244.73 74.884 244.73 75.5024Z" fill="#414141"/>
<path d="M287.511 73.0884C287.511 75.3644 286.914 77.0869 285.72 78.2559C284.527 79.4186 282.773 80 280.46 80H277.213V66.4365H280.877C283.042 66.4365 284.687 67.0024 285.813 68.1343C286.945 69.2661 287.511 70.9175 287.511 73.0884ZM286.481 73.1255C286.481 71.1834 285.986 69.7238 284.997 68.7466C284.013 67.7632 282.566 67.2715 280.655 67.2715H278.159V79.165H280.404C284.455 79.165 286.481 77.1519 286.481 73.1255Z" fill="#414141"/>
<rect x="32.25" y="89.25" width="268.5" height="151.5" stroke="#7E7D7D" stroke-width="0.5"/>
<path d="M281.21 109H280.493V101.2C280.493 100.492 280.522 99.7568 280.581 98.9951C280.507 99.0684 280.432 99.1392 280.354 99.2075C280.275 99.2759 279.521 99.8691 278.09 100.987L277.673 100.467L280.581 98.292H281.21V109Z" fill="#414141"/>
<path d="M280.478 121.109C281.386 121.109 282.116 121.341 282.668 121.805C283.225 122.269 283.503 122.896 283.503 123.687C283.503 124.234 283.33 124.717 282.983 125.137C282.641 125.557 282.084 125.945 281.313 126.302C282.25 126.688 282.91 127.11 283.291 127.569C283.671 128.028 283.862 128.584 283.862 129.239C283.862 130.123 283.552 130.828 282.932 131.355C282.316 131.883 281.489 132.146 280.449 132.146C279.37 132.146 278.542 131.9 277.966 131.407C277.39 130.914 277.102 130.196 277.102 129.253C277.102 128.614 277.304 128.052 277.709 127.569C278.115 127.085 278.742 126.673 279.592 126.331C278.806 125.96 278.251 125.569 277.929 125.159C277.607 124.744 277.446 124.249 277.446 123.672C277.446 123.16 277.575 122.71 277.834 122.325C278.093 121.934 278.454 121.634 278.918 121.424C279.387 121.214 279.907 121.109 280.478 121.109ZM277.849 129.363C277.849 130.037 278.076 130.56 278.53 130.931C278.989 131.302 279.628 131.487 280.449 131.487C281.25 131.487 281.894 131.292 282.382 130.901C282.871 130.506 283.115 129.971 283.115 129.297C283.115 128.692 282.922 128.201 282.536 127.825C282.155 127.444 281.418 127.046 280.324 126.631C279.426 126.978 278.789 127.361 278.413 127.781C278.037 128.201 277.849 128.729 277.849 129.363ZM280.463 121.768C279.775 121.768 279.221 121.939 278.801 122.281C278.386 122.618 278.178 123.082 278.178 123.672C278.178 124.014 278.254 124.317 278.405 124.581C278.562 124.839 278.784 125.076 279.072 125.291C279.365 125.501 279.853 125.748 280.537 126.031C281.333 125.723 281.904 125.384 282.25 125.013C282.597 124.642 282.771 124.195 282.771 123.672C282.771 123.086 282.563 122.623 282.148 122.281C281.738 121.939 281.176 121.768 280.463 121.768Z" fill="#414141"/>
<path d="M277.426 159H276.708V151.2C276.708 150.492 276.737 149.757 276.796 148.995C276.723 149.068 276.647 149.139 276.569 149.208C276.491 149.276 275.736 149.869 274.306 150.987L273.888 150.467L276.796 148.292H277.426V159ZM284.933 152.562C286.076 152.562 286.974 152.838 287.628 153.39C288.288 153.941 288.617 154.701 288.617 155.667C288.617 156.766 288.275 157.621 287.592 158.231C286.908 158.841 285.966 159.146 284.765 159.146C284.232 159.146 283.727 159.095 283.249 158.993C282.77 158.885 282.37 158.734 282.047 158.539V157.784C282.575 158.053 283.043 158.241 283.454 158.348C283.864 158.451 284.301 158.502 284.765 158.502C285.702 158.502 286.454 158.255 287.021 157.762C287.587 157.264 287.87 156.593 287.87 155.748C287.87 154.952 287.594 154.327 287.042 153.873C286.491 153.419 285.741 153.192 284.794 153.192C284.159 153.192 283.495 153.287 282.802 153.478L282.362 153.192L282.787 148.292H287.943V148.995H283.476L283.146 152.774C283.908 152.633 284.503 152.562 284.933 152.562Z" fill="#414141"/>
<path d="M280.96 187H274.258V186.355L277.107 183.382C277.908 182.552 278.47 181.917 278.792 181.478C279.114 181.038 279.351 180.618 279.502 180.218C279.654 179.817 279.729 179.397 279.729 178.958C279.729 178.318 279.52 177.798 279.1 177.398C278.68 176.998 278.135 176.797 277.466 176.797C276.573 176.797 275.718 177.122 274.903 177.771L274.507 177.266C275.401 176.514 276.392 176.138 277.481 176.138C278.414 176.138 279.146 176.387 279.678 176.885C280.215 177.383 280.484 178.069 280.484 178.943C280.484 179.651 280.303 180.337 279.942 181.001C279.585 181.661 278.931 182.476 277.979 183.448L275.232 186.268V186.297H280.96V187ZM289.529 187H282.828V186.355L285.677 183.382C286.478 182.552 287.039 181.917 287.361 181.478C287.684 181.038 287.92 180.618 288.072 180.218C288.223 179.817 288.299 179.397 288.299 178.958C288.299 178.318 288.089 177.798 287.669 177.398C287.249 176.998 286.705 176.797 286.036 176.797C285.142 176.797 284.288 177.122 283.472 177.771L283.077 177.266C283.97 176.514 284.961 176.138 286.05 176.138C286.983 176.138 287.715 176.387 288.248 176.885C288.785 177.383 289.053 178.069 289.053 178.943C289.053 179.651 288.873 180.337 288.511 181.001C288.155 181.661 287.5 182.476 286.548 183.448L283.802 186.268V186.297H289.529V187Z" fill="#414141"/>
<path d="M280.96 211H274.258V210.355L277.107 207.382C277.908 206.552 278.47 205.917 278.792 205.478C279.114 205.038 279.351 204.618 279.502 204.218C279.654 203.817 279.729 203.397 279.729 202.958C279.729 202.318 279.52 201.798 279.1 201.398C278.68 200.998 278.135 200.797 277.466 200.797C276.573 200.797 275.718 201.122 274.903 201.771L274.507 201.266C275.401 200.514 276.392 200.138 277.481 200.138C278.414 200.138 279.146 200.387 279.678 200.885C280.215 201.383 280.484 202.069 280.484 202.943C280.484 203.651 280.303 204.337 279.942 205.001C279.585 205.661 278.931 206.476 277.979 207.448L275.232 210.268V210.297H280.96V211ZM289.588 204.833C289.588 206.239 289.402 207.416 289.031 208.363C288.665 209.311 288.128 210.011 287.42 210.465C286.717 210.919 285.865 211.146 284.864 211.146C284.356 211.146 283.887 211.083 283.458 210.956V210.326C283.667 210.395 283.919 210.448 284.212 210.487C284.51 210.521 284.737 210.539 284.893 210.539C286.099 210.539 287.044 210.104 287.728 209.235C288.411 208.361 288.792 207.089 288.87 205.419H288.782C288.426 205.888 288.001 206.249 287.508 206.503C287.015 206.752 286.5 206.876 285.962 206.876C284.971 206.876 284.197 206.603 283.641 206.056C283.089 205.509 282.813 204.733 282.813 203.727C282.813 202.653 283.116 201.784 283.721 201.12C284.332 200.456 285.123 200.124 286.094 200.124C286.797 200.124 287.413 200.309 287.94 200.68C288.467 201.046 288.873 201.586 289.156 202.299C289.444 203.012 289.588 203.856 289.588 204.833ZM286.094 200.768C285.323 200.768 284.708 201.029 284.249 201.552C283.79 202.069 283.56 202.78 283.56 203.683C283.56 204.533 283.772 205.177 284.197 205.617C284.622 206.056 285.23 206.276 286.021 206.276C286.514 206.276 286.973 206.166 287.398 205.946C287.828 205.727 288.167 205.436 288.416 205.075C288.67 204.708 288.797 204.337 288.797 203.961C288.797 203.39 288.682 202.855 288.453 202.357C288.228 201.859 287.911 201.471 287.5 201.193C287.095 200.91 286.626 200.768 286.094 200.768Z" fill="#414141"/>
<line y1="-0.25" x2="268.268" y2="-0.25" transform="matrix(-0.999993 -0.00372761 0.00337338 -0.999994 300.634 193)" stroke="#414141" stroke-width="0.5"/>
<path d="M160.426 186H159.708V178.2C159.708 177.492 159.737 176.757 159.796 175.995C159.723 176.068 159.647 176.139 159.569 176.208C159.491 176.276 158.736 176.869 157.306 177.987L156.888 177.467L159.796 175.292H160.426V186ZM171.588 179.833C171.588 181.239 171.402 182.416 171.031 183.363C170.665 184.311 170.128 185.011 169.42 185.465C168.717 185.919 167.865 186.146 166.864 186.146C166.356 186.146 165.887 186.083 165.458 185.956V185.326C165.667 185.395 165.919 185.448 166.212 185.487C166.51 185.521 166.737 185.539 166.893 185.539C168.099 185.539 169.044 185.104 169.728 184.235C170.411 183.361 170.792 182.089 170.87 180.419H170.782C170.426 180.888 170.001 181.249 169.508 181.503C169.015 181.752 168.5 181.876 167.962 181.876C166.971 181.876 166.197 181.603 165.641 181.056C165.089 180.509 164.813 179.733 164.813 178.727C164.813 177.653 165.116 176.784 165.721 176.12C166.332 175.456 167.123 175.124 168.094 175.124C168.797 175.124 169.413 175.309 169.94 175.68C170.467 176.046 170.873 176.586 171.156 177.299C171.444 178.012 171.588 178.856 171.588 179.833ZM168.094 175.768C167.323 175.768 166.708 176.029 166.249 176.552C165.79 177.069 165.56 177.78 165.56 178.683C165.56 179.533 165.772 180.177 166.197 180.617C166.622 181.056 167.23 181.276 168.021 181.276C168.514 181.276 168.973 181.166 169.398 180.946C169.828 180.727 170.167 180.436 170.416 180.075C170.67 179.708 170.797 179.337 170.797 178.961C170.797 178.39 170.682 177.855 170.453 177.357C170.228 176.859 169.911 176.471 169.5 176.193C169.095 175.91 168.626 175.768 168.094 175.768Z" fill="#414141"/>
<line y1="-0.25" x2="268.268" y2="-0.25" transform="matrix(-0.999993 -0.00372761 0.00337338 -0.999994 300.634 217)" stroke="#414141" stroke-width="0.5"/>
<line y1="-0.25" x2="268.268" y2="-0.25" transform="matrix(-0.999993 -0.00372761 0.00337338 -0.999994 300.634 166)" stroke="#414141" stroke-width="0.5"/>
<line y1="-0.25" x2="268.268" y2="-0.25" transform="matrix(-0.999993 -0.00372761 0.00337338 -0.999994 300.634 140)" stroke="#414141" stroke-width="0.5"/>
<line y1="-0.25" x2="268.268" y2="-0.25" transform="matrix(-0.999993 -0.00372761 0.00337338 -0.999994 300.634 113)" stroke="#414141" stroke-width="0.5"/>
<path d="M56.7446 132H50.043V131.355L52.8921 128.382C53.6929 127.552 54.2544 126.917 54.5767 126.478C54.8989 126.038 55.1357 125.618 55.2871 125.218C55.4385 124.817 55.5142 124.397 55.5142 123.958C55.5142 123.318 55.3042 122.798 54.8843 122.398C54.4644 121.998 53.9199 121.797 53.251 121.797C52.3574 121.797 51.5029 122.122 50.6875 122.771L50.292 122.266C51.1855 121.514 52.1768 121.138 53.2656 121.138C54.1982 121.138 54.9307 121.387 55.4629 121.885C56 122.383 56.2686 123.069 56.2686 123.943C56.2686 124.651 56.0879 125.337 55.7266 126.001C55.3701 126.661 54.7158 127.476 53.7637 128.448L51.0171 131.268V131.297H56.7446V132Z" fill="#414141"/>
<path d="M91.3857 123.812C91.3857 124.476 91.1758 125.035 90.7559 125.489C90.3408 125.943 89.7817 126.233 89.0786 126.36V126.404C89.938 126.512 90.5923 126.785 91.0415 127.225C91.4907 127.664 91.7153 128.255 91.7153 128.997C91.7153 129.998 91.3735 130.774 90.6899 131.326C90.0112 131.873 89.0322 132.146 87.7529 132.146C86.6641 132.146 85.7144 131.944 84.9038 131.539V130.813C85.314 131.028 85.7729 131.197 86.2808 131.319C86.7935 131.441 87.2744 131.502 87.7236 131.502C88.8027 131.502 89.6133 131.285 90.1553 130.85C90.6973 130.411 90.9683 129.793 90.9683 128.997C90.9683 128.289 90.6899 127.745 90.1333 127.364C89.5815 126.983 88.7686 126.792 87.6943 126.792H86.5371V126.089H87.709C88.5977 126.089 89.3008 125.879 89.8184 125.459C90.3408 125.035 90.6021 124.461 90.6021 123.738C90.6021 123.143 90.3896 122.667 89.9648 122.31C89.5449 121.949 88.9932 121.768 88.3096 121.768C87.7773 121.768 87.2915 121.844 86.8521 121.995C86.4126 122.142 85.9194 122.396 85.3726 122.757L85.0137 122.266C85.4287 121.919 85.9292 121.646 86.5151 121.446C87.1011 121.241 87.6943 121.138 88.2949 121.138C89.2812 121.138 90.043 121.373 90.5801 121.841C91.1172 122.305 91.3857 122.962 91.3857 123.812Z" fill="#414141"/>
<path d="M129.572 129.268H127.727V132H127.038V129.268H121.53V128.777L126.84 121.233H127.727V128.638H129.572V129.268ZM127.038 128.638V125.577C127.038 124.102 127.072 122.864 127.141 121.863H127.082C126.984 122.044 126.684 122.503 126.181 123.24L122.402 128.638H127.038Z" fill="#414141"/>
<path d="M163.148 125.562C164.291 125.562 165.189 125.838 165.844 126.39C166.503 126.941 166.833 127.701 166.833 128.667C166.833 129.766 166.491 130.621 165.807 131.231C165.124 131.841 164.181 132.146 162.98 132.146C162.448 132.146 161.942 132.095 161.464 131.993C160.985 131.885 160.585 131.734 160.263 131.539V130.784C160.79 131.053 161.259 131.241 161.669 131.348C162.079 131.451 162.516 131.502 162.98 131.502C163.917 131.502 164.669 131.255 165.236 130.762C165.802 130.264 166.085 129.593 166.085 128.748C166.085 127.952 165.81 127.327 165.258 126.873C164.706 126.419 163.957 126.192 163.009 126.192C162.375 126.192 161.71 126.287 161.017 126.478L160.578 126.192L161.002 121.292H166.159V121.995H161.691L161.361 125.774C162.123 125.633 162.719 125.562 163.148 125.562Z" fill="#414141"/>
<path d="M198.175 127.437C198.175 126.045 198.363 124.876 198.739 123.929C199.12 122.977 199.657 122.271 200.35 121.812C201.048 121.353 201.888 121.124 202.87 121.124C203.329 121.124 203.749 121.18 204.129 121.292V121.937C203.773 121.805 203.343 121.739 202.84 121.739C201.634 121.739 200.694 122.173 200.021 123.042C199.352 123.912 198.976 125.176 198.893 126.836H198.988C199.359 126.358 199.784 125.997 200.262 125.752C200.741 125.508 201.246 125.386 201.778 125.386C202.779 125.386 203.561 125.672 204.122 126.243C204.688 126.814 204.972 127.603 204.972 128.609C204.972 129.703 204.674 130.567 204.078 131.202C203.487 131.832 202.689 132.146 201.683 132.146C200.599 132.146 199.742 131.734 199.112 130.909C198.487 130.079 198.175 128.921 198.175 127.437ZM201.683 131.502C202.484 131.502 203.106 131.25 203.551 130.748C203.995 130.245 204.217 129.527 204.217 128.594C204.217 127.774 203.998 127.134 203.558 126.675C203.119 126.216 202.521 125.987 201.764 125.987C201.266 125.987 200.802 126.097 200.372 126.316C199.947 126.536 199.608 126.829 199.354 127.195C199.1 127.557 198.973 127.928 198.973 128.309C198.973 128.851 199.093 129.373 199.332 129.876C199.576 130.374 199.903 130.77 200.313 131.062C200.729 131.355 201.185 131.502 201.683 131.502Z" fill="#414141"/>
<path d="M239.662 132L244.071 121.995H238.014V121.292H244.942V121.827L240.519 132H239.662Z" fill="#414141"/>
<path d="M56.8032 152.833C56.8032 154.239 56.6177 155.416 56.2466 156.363C55.8804 157.311 55.3433 158.011 54.6353 158.465C53.9321 158.919 53.0801 159.146 52.0791 159.146C51.5713 159.146 51.1025 159.083 50.6729 158.956V158.326C50.8828 158.395 51.1343 158.448 51.4272 158.487C51.7251 158.521 51.9521 158.539 52.1084 158.539C53.3145 158.539 54.2593 158.104 54.9429 157.235C55.6265 156.361 56.0073 155.089 56.0854 153.419H55.9976C55.6411 153.888 55.2163 154.249 54.7231 154.503C54.23 154.752 53.7148 154.876 53.1777 154.876C52.1865 154.876 51.4126 154.603 50.856 154.056C50.3042 153.509 50.0283 152.733 50.0283 151.727C50.0283 150.653 50.3311 149.784 50.9365 149.12C51.5469 148.456 52.3379 148.124 53.3096 148.124C54.0127 148.124 54.6279 148.309 55.1553 148.68C55.6826 149.046 56.0879 149.586 56.3711 150.299C56.6592 151.012 56.8032 151.856 56.8032 152.833ZM53.3096 148.768C52.5381 148.768 51.9229 149.029 51.4639 149.552C51.0049 150.069 50.7754 150.78 50.7754 151.683C50.7754 152.533 50.9878 153.177 51.4126 153.617C51.8374 154.056 52.4453 154.276 53.2363 154.276C53.7295 154.276 54.1885 154.166 54.6133 153.946C55.043 153.727 55.3823 153.436 55.6313 153.075C55.8853 152.708 56.0122 152.337 56.0122 151.961C56.0122 151.39 55.8975 150.855 55.668 150.357C55.4434 149.859 55.126 149.471 54.7158 149.193C54.3105 148.91 53.8418 148.768 53.3096 148.768Z" fill="#414141"/>
<path d="M84.9258 159H84.208V151.2C84.208 150.492 84.2373 149.757 84.2959 148.995C84.2227 149.068 84.147 149.139 84.0688 149.208C83.9907 149.276 83.2363 149.869 81.8057 150.987L81.3882 150.467L84.2959 148.292H84.9258V159ZM96.2271 153.617C96.2271 155.497 95.939 156.888 95.3628 157.792C94.7915 158.695 93.9248 159.146 92.7627 159.146C91.6445 159.146 90.7949 158.683 90.2139 157.755C89.6328 156.822 89.3423 155.443 89.3423 153.617C89.3423 151.751 89.623 150.37 90.1846 149.471C90.751 148.573 91.6104 148.124 92.7627 148.124C93.8906 148.124 94.75 148.59 95.3408 149.522C95.9316 150.45 96.2271 151.815 96.2271 153.617ZM90.1333 153.617C90.1333 155.277 90.3506 156.505 90.7852 157.301C91.2197 158.092 91.8789 158.487 92.7627 158.487C93.6855 158.487 94.3569 158.077 94.7769 157.257C95.2017 156.437 95.4141 155.223 95.4141 153.617C95.4141 152.035 95.2017 150.833 94.7769 150.013C94.3569 149.193 93.6855 148.783 92.7627 148.783C91.8398 148.783 91.1709 149.193 90.7559 150.013C90.3408 150.833 90.1333 152.035 90.1333 153.617Z" fill="#414141"/>
<path d="M123.426 159H122.708V151.2C122.708 150.492 122.737 149.757 122.796 148.995C122.723 149.068 122.647 149.139 122.569 149.208C122.491 149.276 121.736 149.869 120.306 150.987L119.888 150.467L122.796 148.292H123.426V159ZM131.995 159H131.277V151.2C131.277 150.492 131.307 149.757 131.365 148.995C131.292 149.068 131.216 149.139 131.138 149.208C131.06 149.276 130.306 149.869 128.875 150.987L128.458 150.467L131.365 148.292H131.995V159Z" fill="#414141"/>
<path d="M160.426 159H159.708V151.2C159.708 150.492 159.737 149.757 159.796 148.995C159.723 149.068 159.647 149.139 159.569 149.208C159.491 149.276 158.736 149.869 157.306 150.987L156.888 150.467L159.796 148.292H160.426V159ZM171.529 159H164.828V158.355L167.677 155.382C168.478 154.552 169.039 153.917 169.361 153.478C169.684 153.038 169.92 152.618 170.072 152.218C170.223 151.817 170.299 151.397 170.299 150.958C170.299 150.318 170.089 149.798 169.669 149.398C169.249 148.998 168.705 148.797 168.036 148.797C167.142 148.797 166.288 149.122 165.472 149.771L165.077 149.266C165.97 148.514 166.961 148.138 168.05 148.138C168.983 148.138 169.715 148.387 170.248 148.885C170.785 149.383 171.053 150.069 171.053 150.943C171.053 151.651 170.873 152.337 170.511 153.001C170.155 153.661 169.5 154.476 168.548 155.448L165.802 158.268V158.297H171.529V159Z" fill="#414141"/>
<path d="M238.426 159H237.708V151.2C237.708 150.492 237.737 149.757 237.796 148.995C237.723 149.068 237.647 149.139 237.569 149.208C237.491 149.276 236.736 149.869 235.306 150.987L234.888 150.467L237.796 148.292H238.426V159ZM249.17 150.812C249.17 151.476 248.96 152.035 248.541 152.489C248.125 152.943 247.566 153.233 246.863 153.36V153.404C247.723 153.512 248.377 153.785 248.826 154.225C249.275 154.664 249.5 155.255 249.5 155.997C249.5 156.998 249.158 157.774 248.475 158.326C247.796 158.873 246.817 159.146 245.538 159.146C244.449 159.146 243.499 158.944 242.688 158.539V157.813C243.099 158.028 243.558 158.197 244.065 158.319C244.578 158.441 245.059 158.502 245.508 158.502C246.587 158.502 247.398 158.285 247.94 157.85C248.482 157.411 248.753 156.793 248.753 155.997C248.753 155.289 248.475 154.745 247.918 154.364C247.366 153.983 246.553 153.792 245.479 153.792H244.322V153.089H245.494C246.382 153.089 247.085 152.879 247.603 152.459C248.125 152.035 248.387 151.461 248.387 150.738C248.387 150.143 248.174 149.667 247.75 149.31C247.33 148.949 246.778 148.768 246.094 148.768C245.562 148.768 245.076 148.844 244.637 148.995C244.197 149.142 243.704 149.396 243.157 149.757L242.798 149.266C243.213 148.919 243.714 148.646 244.3 148.446C244.886 148.241 245.479 148.138 246.08 148.138C247.066 148.138 247.828 148.373 248.365 148.841C248.902 149.305 249.17 149.962 249.17 150.812Z" fill="#414141"/>
<path d="M198.426 159H197.708V151.2C197.708 150.492 197.737 149.757 197.796 148.995C197.723 149.068 197.647 149.139 197.569 149.208C197.491 149.276 196.736 149.869 195.306 150.987L194.888 150.467L197.796 148.292H198.426V159ZM210.357 156.268H208.511V159H207.823V156.268H202.315V155.777L207.625 148.233H208.511V155.638H210.357V156.268ZM207.823 155.638V152.577C207.823 151.102 207.857 149.864 207.925 148.863H207.867C207.769 149.044 207.469 149.503 206.966 150.24L203.187 155.638H207.823Z" fill="#414141"/>
<path d="M49.4258 185H48.708V177.2C48.708 176.492 48.7373 175.757 48.7959 174.995C48.7227 175.068 48.647 175.139 48.5688 175.208C48.4907 175.276 47.7363 175.869 46.3057 176.987L45.8882 176.467L48.7959 174.292H49.4258V185ZM53.9595 180.437C53.9595 179.045 54.1475 177.876 54.5234 176.929C54.9043 175.977 55.4414 175.271 56.1348 174.812C56.833 174.353 57.6729 174.124 58.6543 174.124C59.1133 174.124 59.5332 174.18 59.9141 174.292V174.937C59.5576 174.805 59.1279 174.739 58.625 174.739C57.4189 174.739 56.479 175.173 55.8052 176.042C55.1362 176.912 54.7603 178.176 54.6772 179.836H54.7725C55.1436 179.358 55.5684 178.997 56.0469 178.752C56.5254 178.508 57.0308 178.386 57.563 178.386C58.564 178.386 59.3452 178.672 59.9067 179.243C60.4731 179.814 60.7563 180.603 60.7563 181.609C60.7563 182.703 60.4585 183.567 59.8628 184.202C59.272 184.832 58.4736 185.146 57.4678 185.146C56.3838 185.146 55.5269 184.734 54.897 183.909C54.272 183.079 53.9595 181.921 53.9595 180.437ZM57.4678 184.502C58.2686 184.502 58.8911 184.25 59.3354 183.748C59.7798 183.245 60.002 182.527 60.002 181.594C60.002 180.774 59.7822 180.134 59.3428 179.675C58.9033 179.216 58.3052 178.987 57.5483 178.987C57.0503 178.987 56.5864 179.097 56.1567 179.316C55.7319 179.536 55.3926 179.829 55.1387 180.195C54.8848 180.557 54.7578 180.928 54.7578 181.309C54.7578 181.851 54.8774 182.373 55.1167 182.876C55.3608 183.374 55.688 183.77 56.0981 184.062C56.5132 184.355 56.9697 184.502 57.4678 184.502Z" fill="#414141"/>
<path d="M84.9258 186H84.208V178.2C84.208 177.492 84.2373 176.757 84.2959 175.995C84.2227 176.068 84.147 176.139 84.0688 176.208C83.9907 176.276 83.2363 176.869 81.8057 177.987L81.3882 177.467L84.2959 175.292H84.9258V186ZM90.9463 186L95.3555 175.995H89.2983V175.292H96.2271V175.827L91.8032 186H90.9463Z" fill="#414141"/>
<path d="M51.96 211H45.2583V210.355L48.1074 207.382C48.9082 206.552 49.4697 205.917 49.792 205.478C50.1143 205.038 50.3511 204.618 50.5024 204.218C50.6538 203.817 50.7295 203.397 50.7295 202.958C50.7295 202.318 50.5195 201.798 50.0996 201.398C49.6797 200.998 49.1353 200.797 48.4663 200.797C47.5728 200.797 46.7183 201.122 45.9028 201.771L45.5073 201.266C46.4009 200.514 47.3921 200.138 48.481 200.138C49.4136 200.138 50.146 200.387 50.6782 200.885C51.2153 201.383 51.4839 202.069 51.4839 202.943C51.4839 203.651 51.3032 204.337 50.9419 205.001C50.5854 205.661 49.9312 206.476 48.979 207.448L46.2324 210.268V210.297H51.96V211ZM60.1704 202.812C60.1704 203.476 59.9604 204.035 59.5405 204.489C59.1255 204.943 58.5664 205.233 57.8633 205.36V205.404C58.7227 205.512 59.377 205.785 59.8262 206.225C60.2754 206.664 60.5 207.255 60.5 207.997C60.5 208.998 60.1582 209.774 59.4746 210.326C58.7959 210.873 57.8169 211.146 56.5376 211.146C55.4487 211.146 54.499 210.944 53.6885 210.539V209.813C54.0986 210.028 54.5576 210.197 55.0654 210.319C55.5781 210.441 56.0591 210.502 56.5083 210.502C57.5874 210.502 58.3979 210.285 58.9399 209.85C59.4819 209.411 59.7529 208.793 59.7529 207.997C59.7529 207.289 59.4746 206.745 58.918 206.364C58.3662 205.983 57.5532 205.792 56.479 205.792H55.3218V205.089H56.4937C57.3823 205.089 58.0854 204.879 58.603 204.459C59.1255 204.035 59.3867 203.461 59.3867 202.738C59.3867 202.143 59.1743 201.667 58.7495 201.31C58.3296 200.949 57.7778 200.768 57.0942 200.768C56.562 200.768 56.0762 200.844 55.6367 200.995C55.1973 201.142 54.7041 201.396 54.1572 201.757L53.7983 201.266C54.2134 200.919 54.7139 200.646 55.2998 200.446C55.8857 200.241 56.479 200.138 57.0796 200.138C58.0659 200.138 58.8276 200.373 59.3647 200.841C59.9019 201.305 60.1704 201.962 60.1704 202.812Z" fill="#414141"/>
<path d="M88.96 211H82.2583V210.355L85.1074 207.382C85.9082 206.552 86.4697 205.917 86.792 205.478C87.1143 205.038 87.3511 204.618 87.5024 204.218C87.6538 203.817 87.7295 203.397 87.7295 202.958C87.7295 202.318 87.5195 201.798 87.0996 201.398C86.6797 200.998 86.1353 200.797 85.4663 200.797C84.5728 200.797 83.7183 201.122 82.9028 201.771L82.5073 201.266C83.4009 200.514 84.3921 200.138 85.481 200.138C86.4136 200.138 87.146 200.387 87.6782 200.885C88.2153 201.383 88.4839 202.069 88.4839 202.943C88.4839 203.651 88.3032 204.337 87.9419 205.001C87.5854 205.661 86.9312 206.476 85.979 207.448L83.2324 210.268V210.297H88.96V211ZM98.3569 208.268H96.5112V211H95.8228V208.268H90.3149V207.777L95.625 200.233H96.5112V207.638H98.3569V208.268ZM95.8228 207.638V204.577C95.8228 203.102 95.8569 201.864 95.9253 200.863H95.8667C95.769 201.044 95.4688 201.503 94.9658 202.24L91.1865 207.638H95.8228Z" fill="#414141"/>
<path d="M127.96 211H121.258V210.355L124.107 207.382C124.908 206.552 125.47 205.917 125.792 205.478C126.114 205.038 126.351 204.618 126.502 204.218C126.654 203.817 126.729 203.397 126.729 202.958C126.729 202.318 126.52 201.798 126.1 201.398C125.68 200.998 125.135 200.797 124.466 200.797C123.573 200.797 122.718 201.122 121.903 201.771L121.507 201.266C122.401 200.514 123.392 200.138 124.481 200.138C125.414 200.138 126.146 200.387 126.678 200.885C127.215 201.383 127.484 202.069 127.484 202.943C127.484 203.651 127.303 204.337 126.942 205.001C126.585 205.661 125.931 206.476 124.979 207.448L122.232 210.268V210.297H127.96V211ZM132.933 204.562C134.076 204.562 134.974 204.838 135.628 205.39C136.288 205.941 136.617 206.701 136.617 207.667C136.617 208.766 136.275 209.621 135.592 210.231C134.908 210.841 133.966 211.146 132.765 211.146C132.232 211.146 131.727 211.095 131.249 210.993C130.77 210.885 130.37 210.734 130.047 210.539V209.784C130.575 210.053 131.043 210.241 131.454 210.348C131.864 210.451 132.301 210.502 132.765 210.502C133.702 210.502 134.454 210.255 135.021 209.762C135.587 209.264 135.87 208.593 135.87 207.748C135.87 206.952 135.594 206.327 135.042 205.873C134.491 205.419 133.741 205.192 132.794 205.192C132.159 205.192 131.495 205.287 130.802 205.478L130.362 205.192L130.787 200.292H135.943V200.995H131.476L131.146 204.774C131.908 204.633 132.503 204.562 132.933 204.562Z" fill="#414141"/>
<path d="M163.96 211H157.258V210.355L160.107 207.382C160.908 206.552 161.47 205.917 161.792 205.478C162.114 205.038 162.351 204.618 162.502 204.218C162.654 203.817 162.729 203.397 162.729 202.958C162.729 202.318 162.52 201.798 162.1 201.398C161.68 200.998 161.135 200.797 160.466 200.797C159.573 200.797 158.718 201.122 157.903 201.771L157.507 201.266C158.401 200.514 159.392 200.138 160.481 200.138C161.414 200.138 162.146 200.387 162.678 200.885C163.215 201.383 163.484 202.069 163.484 202.943C163.484 203.651 163.303 204.337 162.942 205.001C162.585 205.661 161.931 206.476 160.979 207.448L158.232 210.268V210.297H163.96V211ZM165.959 206.437C165.959 205.045 166.147 203.876 166.523 202.929C166.904 201.977 167.441 201.271 168.135 200.812C168.833 200.353 169.673 200.124 170.654 200.124C171.113 200.124 171.533 200.18 171.914 200.292V200.937C171.558 200.805 171.128 200.739 170.625 200.739C169.419 200.739 168.479 201.173 167.805 202.042C167.136 202.912 166.76 204.176 166.677 205.836H166.772C167.144 205.358 167.568 204.997 168.047 204.752C168.525 204.508 169.031 204.386 169.563 204.386C170.564 204.386 171.345 204.672 171.907 205.243C172.473 205.814 172.756 206.603 172.756 207.609C172.756 208.703 172.458 209.567 171.863 210.202C171.272 210.832 170.474 211.146 169.468 211.146C168.384 211.146 167.527 210.734 166.897 209.909C166.272 209.079 165.959 207.921 165.959 206.437ZM169.468 210.502C170.269 210.502 170.891 210.25 171.335 209.748C171.78 209.245 172.002 208.527 172.002 207.594C172.002 206.774 171.782 206.134 171.343 205.675C170.903 205.216 170.305 204.987 169.548 204.987C169.05 204.987 168.586 205.097 168.157 205.316C167.732 205.536 167.393 205.829 167.139 206.195C166.885 206.557 166.758 206.928 166.758 207.309C166.758 207.851 166.877 208.373 167.117 208.876C167.361 209.374 167.688 209.77 168.098 210.062C168.513 210.355 168.97 210.502 169.468 210.502Z" fill="#414141"/>
<path d="M202.96 211H196.258V210.355L199.107 207.382C199.908 206.552 200.47 205.917 200.792 205.478C201.114 205.038 201.351 204.618 201.502 204.218C201.654 203.817 201.729 203.397 201.729 202.958C201.729 202.318 201.52 201.798 201.1 201.398C200.68 200.998 200.135 200.797 199.466 200.797C198.573 200.797 197.718 201.122 196.903 201.771L196.507 201.266C197.401 200.514 198.392 200.138 199.481 200.138C200.414 200.138 201.146 200.387 201.678 200.885C202.215 201.383 202.484 202.069 202.484 202.943C202.484 203.651 202.303 204.337 201.942 205.001C201.585 205.661 200.931 206.476 199.979 207.448L197.232 210.268V210.297H202.96V211ZM206.446 211L210.855 200.995H204.798V200.292H211.727V200.827L207.303 211H206.446Z" fill="#414141"/>
<path d="M244.96 211H238.258V210.355L241.107 207.382C241.908 206.552 242.47 205.917 242.792 205.478C243.114 205.038 243.351 204.618 243.502 204.218C243.654 203.817 243.729 203.397 243.729 202.958C243.729 202.318 243.52 201.798 243.1 201.398C242.68 200.998 242.135 200.797 241.466 200.797C240.573 200.797 239.718 201.122 238.903 201.771L238.507 201.266C239.401 200.514 240.392 200.138 241.481 200.138C242.414 200.138 243.146 200.387 243.678 200.885C244.215 201.383 244.484 202.069 244.484 202.943C244.484 203.651 244.303 204.337 243.942 205.001C243.585 205.661 242.931 206.476 241.979 207.448L239.232 210.268V210.297H244.96V211ZM250.263 200.109C251.171 200.109 251.901 200.341 252.453 200.805C253.009 201.269 253.288 201.896 253.288 202.687C253.288 203.234 253.114 203.717 252.768 204.137C252.426 204.557 251.869 204.945 251.098 205.302C252.035 205.688 252.694 206.11 253.075 206.569C253.456 207.028 253.646 207.584 253.646 208.239C253.646 209.123 253.336 209.828 252.716 210.355C252.101 210.883 251.273 211.146 250.233 211.146C249.154 211.146 248.327 210.9 247.75 210.407C247.174 209.914 246.886 209.196 246.886 208.253C246.886 207.614 247.089 207.052 247.494 206.569C247.899 206.085 248.527 205.673 249.376 205.331C248.59 204.96 248.036 204.569 247.714 204.159C247.392 203.744 247.23 203.249 247.23 202.672C247.23 202.16 247.36 201.71 247.619 201.325C247.877 200.934 248.239 200.634 248.703 200.424C249.171 200.214 249.691 200.109 250.263 200.109ZM247.633 208.363C247.633 209.037 247.86 209.56 248.314 209.931C248.773 210.302 249.413 210.487 250.233 210.487C251.034 210.487 251.679 210.292 252.167 209.901C252.655 209.506 252.899 208.971 252.899 208.297C252.899 207.692 252.707 207.201 252.321 206.825C251.94 206.444 251.203 206.046 250.109 205.631C249.21 205.978 248.573 206.361 248.197 206.781C247.821 207.201 247.633 207.729 247.633 208.363ZM250.248 200.768C249.56 200.768 249.005 200.939 248.585 201.281C248.17 201.618 247.963 202.082 247.963 202.672C247.963 203.014 248.039 203.317 248.19 203.581C248.346 203.839 248.568 204.076 248.856 204.291C249.149 204.501 249.638 204.748 250.321 205.031C251.117 204.723 251.688 204.384 252.035 204.013C252.382 203.642 252.555 203.195 252.555 202.672C252.555 202.086 252.348 201.623 251.933 201.281C251.522 200.939 250.961 200.768 250.248 200.768Z" fill="#414141"/>
<path d="M51.6011 226.812C51.6011 227.476 51.3911 228.035 50.9712 228.489C50.5562 228.943 49.9971 229.233 49.2939 229.36V229.404C50.1533 229.512 50.8076 229.785 51.2568 230.225C51.7061 230.664 51.9307 231.255 51.9307 231.997C51.9307 232.998 51.5889 233.774 50.9053 234.326C50.2266 234.873 49.2476 235.146 47.9683 235.146C46.8794 235.146 45.9297 234.944 45.1191 234.539V233.813C45.5293 234.028 45.9883 234.197 46.4961 234.319C47.0088 234.441 47.4897 234.502 47.939 234.502C49.0181 234.502 49.8286 234.285 50.3706 233.85C50.9126 233.411 51.1836 232.793 51.1836 231.997C51.1836 231.289 50.9053 230.745 50.3486 230.364C49.7969 229.983 48.9839 229.792 47.9097 229.792H46.7524V229.089H47.9243C48.813 229.089 49.5161 228.879 50.0337 228.459C50.5562 228.035 50.8174 227.461 50.8174 226.738C50.8174 226.143 50.605 225.667 50.1802 225.31C49.7603 224.949 49.2085 224.768 48.5249 224.768C47.9927 224.768 47.5068 224.844 47.0674 224.995C46.6279 225.142 46.1348 225.396 45.5879 225.757L45.229 225.266C45.644 224.919 46.1445 224.646 46.7305 224.446C47.3164 224.241 47.9097 224.138 48.5103 224.138C49.4966 224.138 50.2583 224.373 50.7954 224.841C51.3325 225.305 51.6011 225.962 51.6011 226.812ZM60.7271 229.617C60.7271 231.497 60.439 232.888 59.8628 233.792C59.2915 234.695 58.4248 235.146 57.2627 235.146C56.1445 235.146 55.2949 234.683 54.7139 233.755C54.1328 232.822 53.8423 231.443 53.8423 229.617C53.8423 227.751 54.123 226.37 54.6846 225.471C55.251 224.573 56.1104 224.124 57.2627 224.124C58.3906 224.124 59.25 224.59 59.8408 225.522C60.4316 226.45 60.7271 227.815 60.7271 229.617ZM54.6333 229.617C54.6333 231.277 54.8506 232.505 55.2852 233.301C55.7197 234.092 56.3789 234.487 57.2627 234.487C58.1855 234.487 58.8569 234.077 59.2769 233.257C59.7017 232.437 59.9141 231.223 59.9141 229.617C59.9141 228.035 59.7017 226.833 59.2769 226.013C58.8569 225.193 58.1855 224.783 57.2627 224.783C56.3398 224.783 55.6709 225.193 55.2559 226.013C54.8408 226.833 54.6333 228.035 54.6333 229.617Z" fill="#414141"/>
<path d="M88.6011 226.812C88.6011 227.476 88.3911 228.035 87.9712 228.489C87.5562 228.943 86.9971 229.233 86.2939 229.36V229.404C87.1533 229.512 87.8076 229.785 88.2568 230.225C88.7061 230.664 88.9307 231.255 88.9307 231.997C88.9307 232.998 88.5889 233.774 87.9053 234.326C87.2266 234.873 86.2476 235.146 84.9683 235.146C83.8794 235.146 82.9297 234.944 82.1191 234.539V233.813C82.5293 234.028 82.9883 234.197 83.4961 234.319C84.0088 234.441 84.4897 234.502 84.939 234.502C86.0181 234.502 86.8286 234.285 87.3706 233.85C87.9126 233.411 88.1836 232.793 88.1836 231.997C88.1836 231.289 87.9053 230.745 87.3486 230.364C86.7969 229.983 85.9839 229.792 84.9097 229.792H83.7524V229.089H84.9243C85.813 229.089 86.5161 228.879 87.0337 228.459C87.5562 228.035 87.8174 227.461 87.8174 226.738C87.8174 226.143 87.605 225.667 87.1802 225.31C86.7603 224.949 86.2085 224.768 85.5249 224.768C84.9927 224.768 84.5068 224.844 84.0674 224.995C83.6279 225.142 83.1348 225.396 82.5879 225.757L82.229 225.266C82.644 224.919 83.1445 224.646 83.7305 224.446C84.3164 224.241 84.9097 224.138 85.5103 224.138C86.4966 224.138 87.2583 224.373 87.7954 224.841C88.3325 225.305 88.6011 225.962 88.6011 226.812ZM94.9951 235H94.2773V227.2C94.2773 226.492 94.3066 225.757 94.3652 224.995C94.292 225.068 94.2163 225.139 94.1382 225.208C94.0601 225.276 93.3057 225.869 91.875 226.987L91.4575 226.467L94.3652 224.292H94.9951V235Z" fill="#414141"/>
<defs>
<filter id="filter0_f" x="0" y="0" width="333" height="289" filterUnits="userSpaceOnUse" color-interpolation-filters="sRGB">
<feFlood flood-opacity="0" result="BackgroundImageFix"/>
<feBlend mode="normal" in="SourceGraphic" in2="BackgroundImageFix" result="shape"/>
<feGaussianBlur stdDeviation="10" result="effect1_foregroundBlur"/>
</filter>
</defs>
</svg>
